<mxfile host="app.diagrams.net" modified="2020-06-16T09:27:22.152Z" agent="5.0 (Windows NT 10.0; Win64; x64) AppleWebKit/537.36 (KHTML, like Gecko) Chrome/83.0.4103.97 Safari/537.36" etag="FfxSkt5tV3xQo8Qc7a82" version="13.2.4" type="github">
  <diagram id="yfe1ubAWEN9uFRtAX4zq" name="Page-1">
    <mxGraphModel dx="868" dy="439" grid="1" gridSize="10" guides="1" tooltips="1" connect="1" arrows="1" fold="1" page="1" pageScale="1" pageWidth="827" pageHeight="1169" math="0" shadow="0">
      <root>
        <mxCell id="0" />
        <mxCell id="1" parent="0" />
        <mxCell id="YDf5MCtkhkVf0nu9kX-I-99" value="" style="edgeStyle=elbowEdgeStyle;elbow=horizontal;endArrow=classic;html=1;entryX=0;entryY=0.5;entryDx=0;entryDy=0;exitX=0.5;exitY=1;exitDx=0;exitDy=0;" parent="1" source="YDf5MCtkhkVf0nu9kX-I-23" edge="1">
          <mxGeometry width="50" height="50" relative="1" as="geometry">
            <mxPoint x="340" y="710" as="sourcePoint" />
            <mxPoint x="440" y="880" as="targetPoint" />
            <Array as="points">
              <mxPoint x="410" y="880" />
            </Array>
          </mxGeometry>
        </mxCell>
        <mxCell id="YDf5MCtkhkVf0nu9kX-I-100" value="" style="edgeStyle=elbowEdgeStyle;elbow=horizontal;endArrow=classic;html=1;entryX=1;entryY=0.5;entryDx=0;entryDy=0;exitX=0.5;exitY=1;exitDx=0;exitDy=0;" parent="1" source="YDf5MCtkhkVf0nu9kX-I-83" edge="1">
          <mxGeometry width="50" height="50" relative="1" as="geometry">
            <mxPoint x="430" y="830" as="sourcePoint" />
            <mxPoint x="580" y="880" as="targetPoint" />
            <Array as="points">
              <mxPoint x="610" y="850" />
            </Array>
          </mxGeometry>
        </mxCell>
        <mxCell id="YDf5MCtkhkVf0nu9kX-I-101" value="统一标准、量化评估" style="shape=ext;double=1;rounded=0;whiteSpace=wrap;html=1;" parent="1" vertex="1">
          <mxGeometry x="440" y="850" width="140" height="60" as="geometry" />
        </mxCell>
        <mxCell id="YDf5MCtkhkVf0nu9kX-I-102" value="&amp;nbsp;数据驱动" style="label;whiteSpace=wrap;html=1;image=img/clipart/Gear_128x128.png" parent="1" vertex="1">
          <mxGeometry x="440" y="940" width="140" height="60" as="geometry" />
        </mxCell>
        <mxCell id="YDf5MCtkhkVf0nu9kX-I-103" value="3" style="shape=partialRectangle;html=1;whiteSpace=wrap;connectable=0;fillColor=#dae8fc;top=0;left=0;bottom=0;right=0;overflow=hidden;strokeColor=#6c8ebf;" parent="1" vertex="1">
          <mxGeometry x="350" y="630" width="40" height="30" as="geometry" />
        </mxCell>
        <mxCell id="YDf5MCtkhkVf0nu9kX-I-104" value="4" style="shape=partialRectangle;html=1;whiteSpace=wrap;connectable=0;fillColor=#dae8fc;top=0;left=0;bottom=0;right=0;overflow=hidden;strokeColor=#6c8ebf;" parent="1" vertex="1">
          <mxGeometry x="350" y="660" width="40" height="30" as="geometry" />
        </mxCell>
        <mxCell id="YDf5MCtkhkVf0nu9kX-I-105" value="5" style="shape=partialRectangle;html=1;whiteSpace=wrap;connectable=0;fillColor=#dae8fc;top=0;left=0;bottom=0;right=0;overflow=hidden;strokeColor=#6c8ebf;" parent="1" vertex="1">
          <mxGeometry x="350" y="690" width="40" height="30" as="geometry" />
        </mxCell>
        <mxCell id="YDf5MCtkhkVf0nu9kX-I-106" value="6" style="shape=partialRectangle;html=1;whiteSpace=wrap;connectable=0;fillColor=#dae8fc;top=0;left=0;bottom=0;right=0;overflow=hidden;strokeColor=#6c8ebf;" parent="1" vertex="1">
          <mxGeometry x="350" y="715" width="40" height="30" as="geometry" />
        </mxCell>
        <mxCell id="YDf5MCtkhkVf0nu9kX-I-107" value="7" style="shape=partialRectangle;html=1;whiteSpace=wrap;connectable=0;fillColor=#dae8fc;top=0;left=0;bottom=0;right=0;overflow=hidden;strokeColor=#6c8ebf;" parent="1" vertex="1">
          <mxGeometry x="350" y="745" width="40" height="30" as="geometry" />
        </mxCell>
        <mxCell id="YDf5MCtkhkVf0nu9kX-I-108" value="8" style="shape=partialRectangle;html=1;whiteSpace=wrap;connectable=0;fillColor=#dae8fc;top=0;left=0;bottom=0;right=0;overflow=hidden;strokeColor=#6c8ebf;" parent="1" vertex="1">
          <mxGeometry x="350" y="775" width="40" height="35" as="geometry" />
        </mxCell>
        <mxCell id="YDf5MCtkhkVf0nu9kX-I-109" value="社会效益与影响" style="shape=partialRectangle;html=1;whiteSpace=wrap;connectable=0;fillColor=#dae8fc;top=0;left=0;bottom=0;right=0;align=left;spacingLeft=6;overflow=hidden;strokeColor=#6c8ebf;" parent="1" vertex="1">
          <mxGeometry x="390" y="630" width="100" height="30" as="geometry" />
        </mxCell>
        <mxCell id="YDf5MCtkhkVf0nu9kX-I-110" value="资源利用" style="shape=partialRectangle;html=1;whiteSpace=wrap;connectable=0;fillColor=#dae8fc;top=0;left=0;bottom=0;right=0;align=left;spacingLeft=6;overflow=hidden;strokeColor=#6c8ebf;" parent="1" vertex="1">
          <mxGeometry x="390" y="660" width="100" height="30" as="geometry" />
        </mxCell>
        <mxCell id="YDf5MCtkhkVf0nu9kX-I-111" value="健康与安全" style="shape=partialRectangle;html=1;whiteSpace=wrap;connectable=0;fillColor=#dae8fc;top=0;left=0;bottom=0;right=0;align=left;spacingLeft=6;overflow=hidden;strokeColor=#6c8ebf;" parent="1" vertex="1">
          <mxGeometry x="390" y="690" width="100" height="30" as="geometry" />
        </mxCell>
        <mxCell id="YDf5MCtkhkVf0nu9kX-I-112" value="项目治理" style="shape=partialRectangle;html=1;whiteSpace=wrap;connectable=0;fillColor=#dae8fc;top=0;left=0;bottom=0;right=0;align=left;spacingLeft=6;overflow=hidden;strokeColor=#6c8ebf;" parent="1" vertex="1">
          <mxGeometry x="390" y="715" width="100" height="30" as="geometry" />
        </mxCell>
        <mxCell id="YDf5MCtkhkVf0nu9kX-I-113" value="技术进步" style="shape=partialRectangle;html=1;whiteSpace=wrap;connectable=0;fillColor=#dae8fc;top=0;left=0;bottom=0;right=0;align=left;spacingLeft=6;overflow=hidden;strokeColor=#6c8ebf;" parent="1" vertex="1">
          <mxGeometry x="390" y="745" width="100" height="30" as="geometry" />
        </mxCell>
        <mxCell id="YDf5MCtkhkVf0nu9kX-I-114" value="可持续性" style="shape=partialRectangle;html=1;whiteSpace=wrap;connectable=0;fillColor=#dae8fc;top=0;left=0;bottom=0;right=0;align=left;spacingLeft=6;overflow=hidden;strokeColor=#6c8ebf;" parent="1" vertex="1">
          <mxGeometry x="390" y="775" width="100" height="35" as="geometry" />
        </mxCell>
        <mxCell id="YDf5MCtkhkVf0nu9kX-I-115" value="3" style="shape=partialRectangle;html=1;whiteSpace=wrap;connectable=0;fillColor=#d5e8d4;top=0;left=0;bottom=0;right=0;overflow=hidden;strokeColor=#82b366;" parent="1" vertex="1">
          <mxGeometry x="530" y="630" width="40" height="30" as="geometry" />
        </mxCell>
        <mxCell id="YDf5MCtkhkVf0nu9kX-I-116" value="4" style="shape=partialRectangle;html=1;whiteSpace=wrap;connectable=0;fillColor=#d5e8d4;top=0;left=0;bottom=0;right=0;overflow=hidden;strokeColor=#82b366;" parent="1" vertex="1">
          <mxGeometry x="530" y="660" width="40" height="30" as="geometry" />
        </mxCell>
        <mxCell id="YDf5MCtkhkVf0nu9kX-I-117" value="5" style="shape=partialRectangle;html=1;whiteSpace=wrap;connectable=0;fillColor=#d5e8d4;top=0;left=0;bottom=0;right=0;overflow=hidden;strokeColor=#82b366;" parent="1" vertex="1">
          <mxGeometry x="530" y="690" width="40" height="30" as="geometry" />
        </mxCell>
        <mxCell id="YDf5MCtkhkVf0nu9kX-I-118" value="6" style="shape=partialRectangle;html=1;whiteSpace=wrap;connectable=0;fillColor=#d5e8d4;top=0;left=0;bottom=0;right=0;overflow=hidden;strokeColor=#82b366;" parent="1" vertex="1">
          <mxGeometry x="530" y="720" width="40" height="30" as="geometry" />
        </mxCell>
        <mxCell id="YDf5MCtkhkVf0nu9kX-I-119" value="7" style="shape=partialRectangle;html=1;whiteSpace=wrap;connectable=0;fillColor=#d5e8d4;top=0;left=0;bottom=0;right=0;overflow=hidden;strokeColor=#82b366;" parent="1" vertex="1">
          <mxGeometry x="530" y="750" width="40" height="30" as="geometry" />
        </mxCell>
        <mxCell id="YDf5MCtkhkVf0nu9kX-I-120" value="8" style="shape=partialRectangle;html=1;whiteSpace=wrap;connectable=0;fillColor=#d5e8d4;top=0;left=0;bottom=0;right=0;overflow=hidden;strokeColor=#82b366;" parent="1" vertex="1">
          <mxGeometry x="530" y="780" width="40" height="30" as="geometry" />
        </mxCell>
        <mxCell id="YDf5MCtkhkVf0nu9kX-I-121" value="项目成本" style="shape=partialRectangle;html=1;whiteSpace=wrap;connectable=0;fillColor=#d5e8d4;top=0;left=0;bottom=0;right=0;align=left;spacingLeft=6;overflow=hidden;strokeColor=#82b366;" parent="1" vertex="1">
          <mxGeometry x="570" y="630" width="100" height="30" as="geometry" />
        </mxCell>
        <mxCell id="YDf5MCtkhkVf0nu9kX-I-122" value="项目质量" style="shape=partialRectangle;html=1;whiteSpace=wrap;connectable=0;fillColor=#d5e8d4;top=0;left=0;bottom=0;right=0;align=left;spacingLeft=6;overflow=hidden;strokeColor=#82b366;" parent="1" vertex="1">
          <mxGeometry x="570" y="660" width="100" height="30" as="geometry" />
        </mxCell>
        <mxCell id="YDf5MCtkhkVf0nu9kX-I-123" value="人力资源管理" style="shape=partialRectangle;html=1;whiteSpace=wrap;connectable=0;fillColor=#d5e8d4;top=0;left=0;bottom=0;right=0;align=left;spacingLeft=6;overflow=hidden;strokeColor=#82b366;" parent="1" vertex="1">
          <mxGeometry x="570" y="690" width="100" height="30" as="geometry" />
        </mxCell>
        <mxCell id="YDf5MCtkhkVf0nu9kX-I-124" value="沟通管理" style="shape=partialRectangle;html=1;whiteSpace=wrap;connectable=0;fillColor=#d5e8d4;top=0;left=0;bottom=0;right=0;align=left;spacingLeft=6;overflow=hidden;strokeColor=#82b366;" parent="1" vertex="1">
          <mxGeometry x="570" y="720" width="100" height="30" as="geometry" />
        </mxCell>
        <mxCell id="YDf5MCtkhkVf0nu9kX-I-125" value="采购管理" style="shape=partialRectangle;html=1;whiteSpace=wrap;connectable=0;fillColor=#d5e8d4;top=0;left=0;bottom=0;right=0;align=left;spacingLeft=6;overflow=hidden;strokeColor=#82b366;" parent="1" vertex="1">
          <mxGeometry x="570" y="750" width="100" height="30" as="geometry" />
        </mxCell>
        <mxCell id="YDf5MCtkhkVf0nu9kX-I-126" value="项目干系人管理" style="shape=partialRectangle;html=1;whiteSpace=wrap;connectable=0;fillColor=#d5e8d4;top=0;left=0;bottom=0;right=0;align=left;spacingLeft=6;overflow=hidden;strokeColor=#82b366;" parent="1" vertex="1">
          <mxGeometry x="570" y="780" width="100" height="30" as="geometry" />
        </mxCell>
        <mxCell id="YDf5MCtkhkVf0nu9kX-I-127" value="" style="endArrow=classic;html=1;exitX=0.5;exitY=1;exitDx=0;exitDy=0;" parent="1" source="YDf5MCtkhkVf0nu9kX-I-101" target="YDf5MCtkhkVf0nu9kX-I-102" edge="1">
          <mxGeometry width="50" height="50" relative="1" as="geometry">
            <mxPoint x="380" y="920" as="sourcePoint" />
            <mxPoint x="430" y="870" as="targetPoint" />
          </mxGeometry>
        </mxCell>
        <mxCell id="YDf5MCtkhkVf0nu9kX-I-137" value="" style="edgeStyle=orthogonalEdgeStyle;rounded=0;orthogonalLoop=1;jettySize=auto;html=1;" parent="1" source="YDf5MCtkhkVf0nu9kX-I-128" target="YDf5MCtkhkVf0nu9kX-I-136" edge="1">
          <mxGeometry relative="1" as="geometry" />
        </mxCell>
        <mxCell id="YDf5MCtkhkVf0nu9kX-I-128" value="文献调研分析" style="rounded=0;whiteSpace=wrap;html=1;" parent="1" vertex="1">
          <mxGeometry x="150" y="120" width="130" height="40" as="geometry" />
        </mxCell>
        <mxCell id="YDf5MCtkhkVf0nu9kX-I-136" value="国内外政府固定资产投资项目现状调研" style="rounded=0;whiteSpace=wrap;html=1;" parent="1" vertex="1">
          <mxGeometry x="150" y="220" width="130" height="40" as="geometry" />
        </mxCell>
        <mxCell id="YDf5MCtkhkVf0nu9kX-I-134" value="" style="endArrow=classic;html=1;exitX=1;exitY=0.5;exitDx=0;exitDy=0;" parent="1" source="YDf5MCtkhkVf0nu9kX-I-128" target="YDf5MCtkhkVf0nu9kX-I-130" edge="1">
          <mxGeometry width="50" height="50" relative="1" as="geometry">
            <mxPoint x="470" y="230" as="sourcePoint" />
            <mxPoint x="320" y="140" as="targetPoint" />
          </mxGeometry>
        </mxCell>
        <mxCell id="YDf5MCtkhkVf0nu9kX-I-140" value="平台型" style="rounded=0;whiteSpace=wrap;html=1;" parent="1" vertex="1">
          <mxGeometry x="370" y="200" width="100" height="20" as="geometry" />
        </mxCell>
        <mxCell id="YDf5MCtkhkVf0nu9kX-I-141" value="福利型" style="rounded=0;whiteSpace=wrap;html=1;" parent="1" vertex="1">
          <mxGeometry x="370" y="230" width="100" height="20" as="geometry" />
        </mxCell>
        <mxCell id="YDf5MCtkhkVf0nu9kX-I-142" value="资源型" style="rounded=0;whiteSpace=wrap;html=1;" parent="1" vertex="1">
          <mxGeometry x="370" y="260" width="100" height="20" as="geometry" />
        </mxCell>
        <mxCell id="YDf5MCtkhkVf0nu9kX-I-144" value="" style="endArrow=classic;html=1;exitX=1;exitY=0.5;exitDx=0;exitDy=0;" parent="1" edge="1">
          <mxGeometry width="50" height="50" relative="1" as="geometry">
            <mxPoint x="280" y="239.57999999999998" as="sourcePoint" />
            <mxPoint x="360" y="240" as="targetPoint" />
          </mxGeometry>
        </mxCell>
        <mxCell id="YDf5MCtkhkVf0nu9kX-I-145" value="项目定位分类" style="text;html=1;strokeColor=none;fillColor=none;align=center;verticalAlign=middle;whiteSpace=wrap;rounded=0;" parent="1" vertex="1">
          <mxGeometry x="290" y="210" width="60" height="20" as="geometry" />
        </mxCell>
        <mxCell id="YDf5MCtkhkVf0nu9kX-I-146" value="" style="rounded=1;arcSize=10;dashed=1;strokeColor=#000000;fillColor=none;gradientColor=none;dashPattern=8 3 1 3;strokeWidth=2;" parent="1" vertex="1">
          <mxGeometry x="360" y="190" width="120" height="100" as="geometry" />
        </mxCell>
        <mxCell id="YDf5MCtkhkVf0nu9kX-I-129" value="投资效益、规模效益、社会效益、耦合机理" style="swimlane;childLayout=stackLayout;horizontal=1;fillColor=none;horizontalStack=1;resizeParent=1;resizeParentMax=0;resizeLast=0;collapsible=0;strokeColor=none;stackBorder=10;stackSpacing=-12;resizable=1;align=center;points=[];fontColor=#000000;" parent="1" vertex="1">
          <mxGeometry x="332" y="80" width="296" height="100" as="geometry" />
        </mxCell>
        <mxCell id="YDf5MCtkhkVf0nu9kX-I-130" value="理论研究" style="shape=step;perimeter=stepPerimeter;fixedSize=1;points=[];" parent="YDf5MCtkhkVf0nu9kX-I-129" vertex="1">
          <mxGeometry x="10" y="33" width="100" height="57" as="geometry" />
        </mxCell>
        <mxCell id="YDf5MCtkhkVf0nu9kX-I-131" value="问题提炼" style="shape=step;perimeter=stepPerimeter;fixedSize=1;points=[];" parent="YDf5MCtkhkVf0nu9kX-I-129" vertex="1">
          <mxGeometry x="98" y="33" width="100" height="57" as="geometry" />
        </mxCell>
        <mxCell id="YDf5MCtkhkVf0nu9kX-I-132" value="汇总分析" style="shape=step;perimeter=stepPerimeter;fixedSize=1;points=[];" parent="YDf5MCtkhkVf0nu9kX-I-129" vertex="1">
          <mxGeometry x="186" y="33" width="100" height="57" as="geometry" />
        </mxCell>
        <mxCell id="YDf5MCtkhkVf0nu9kX-I-171" value="" style="edgeStyle=orthogonalEdgeStyle;rounded=0;orthogonalLoop=1;jettySize=auto;html=1;" parent="1" source="YDf5MCtkhkVf0nu9kX-I-147" target="YDf5MCtkhkVf0nu9kX-I-170" edge="1">
          <mxGeometry relative="1" as="geometry" />
        </mxCell>
        <mxCell id="YDf5MCtkhkVf0nu9kX-I-147" value="北京市及各区、国内超一线城市固定资产投资值、投资方向及趋势调研" style="rounded=0;whiteSpace=wrap;html=1;" parent="1" vertex="1">
          <mxGeometry x="145" y="334.75" width="140" height="53.5" as="geometry" />
        </mxCell>
        <mxCell id="YDf5MCtkhkVf0nu9kX-I-182" value="" style="edgeStyle=orthogonalEdgeStyle;rounded=0;orthogonalLoop=1;jettySize=auto;html=1;" parent="1" source="YDf5MCtkhkVf0nu9kX-I-170" target="YDf5MCtkhkVf0nu9kX-I-181" edge="1">
          <mxGeometry relative="1" as="geometry" />
        </mxCell>
        <mxCell id="YDf5MCtkhkVf0nu9kX-I-170" value="建立房山区十四五重大项目评价指标体系" style="rounded=0;whiteSpace=wrap;html=1;" parent="1" vertex="1">
          <mxGeometry x="145" y="420" width="140" height="53.5" as="geometry" />
        </mxCell>
        <mxCell id="YDf5MCtkhkVf0nu9kX-I-186" value="" style="edgeStyle=orthogonalEdgeStyle;rounded=0;orthogonalLoop=1;jettySize=auto;html=1;" parent="1" source="YDf5MCtkhkVf0nu9kX-I-181" target="YDf5MCtkhkVf0nu9kX-I-185" edge="1">
          <mxGeometry relative="1" as="geometry" />
        </mxCell>
        <mxCell id="YDf5MCtkhkVf0nu9kX-I-181" value="依据项目功能定位，分类确定评价标准" style="rounded=0;whiteSpace=wrap;html=1;" parent="1" vertex="1">
          <mxGeometry x="145" y="553.5" width="140" height="46.5" as="geometry" />
        </mxCell>
        <mxCell id="YDf5MCtkhkVf0nu9kX-I-188" value="" style="edgeStyle=orthogonalEdgeStyle;rounded=0;orthogonalLoop=1;jettySize=auto;html=1;" parent="1" source="YDf5MCtkhkVf0nu9kX-I-185" target="YDf5MCtkhkVf0nu9kX-I-187" edge="1">
          <mxGeometry relative="1" as="geometry" />
        </mxCell>
        <mxCell id="YDf5MCtkhkVf0nu9kX-I-185" value="结合价值工程、投资效益、社会效益、平台效益等开展项目评估" style="rounded=0;whiteSpace=wrap;html=1;" parent="1" vertex="1">
          <mxGeometry x="145" y="680" width="140" height="46.5" as="geometry" />
        </mxCell>
        <mxCell id="YDf5MCtkhkVf0nu9kX-I-187" value="基于指标体系对单个项目开展评价与风险评估" style="rounded=0;whiteSpace=wrap;html=1;" parent="1" vertex="1">
          <mxGeometry x="145" y="806.5" width="140" height="46.5" as="geometry" />
        </mxCell>
        <mxCell id="YDf5MCtkhkVf0nu9kX-I-148" value="" style="edgeStyle=orthogonalEdgeStyle;rounded=0;orthogonalLoop=1;jettySize=auto;html=1;entryX=0.5;entryY=0;entryDx=0;entryDy=0;" parent="1" target="YDf5MCtkhkVf0nu9kX-I-147" edge="1">
          <mxGeometry relative="1" as="geometry">
            <mxPoint x="215" y="260" as="sourcePoint" />
            <mxPoint x="225" y="230" as="targetPoint" />
          </mxGeometry>
        </mxCell>
        <mxCell id="YDf5MCtkhkVf0nu9kX-I-157" value="" style="endArrow=classic;html=1;entryX=0.19;entryY=0.491;entryDx=0;entryDy=0;entryPerimeter=0;exitX=1;exitY=0.5;exitDx=0;exitDy=0;" parent="1" source="YDf5MCtkhkVf0nu9kX-I-147" target="YDf5MCtkhkVf0nu9kX-I-154" edge="1">
          <mxGeometry width="50" height="50" relative="1" as="geometry">
            <mxPoint x="285" y="375" as="sourcePoint" />
            <mxPoint x="368.4035364698452" y="151.0500473634355" as="targetPoint" />
          </mxGeometry>
        </mxCell>
        <mxCell id="YDf5MCtkhkVf0nu9kX-I-153" value="基于区域现状、结合当下进行聚类分析" style="swimlane;childLayout=stackLayout;horizontal=1;fillColor=none;horizontalStack=1;resizeParent=1;resizeParentMax=0;resizeLast=0;collapsible=0;strokeColor=none;stackBorder=10;stackSpacing=-12;resizable=1;align=center;points=[];fontColor=#000000;" parent="1" vertex="1">
          <mxGeometry x="332" y="300" width="296" height="100" as="geometry" />
        </mxCell>
        <mxCell id="YDf5MCtkhkVf0nu9kX-I-154" value="往年政府&#xa;投资效果&#xa;评价研究" style="shape=step;perimeter=stepPerimeter;fixedSize=1;points=[];" parent="YDf5MCtkhkVf0nu9kX-I-153" vertex="1">
          <mxGeometry x="10" y="33" width="100" height="57" as="geometry" />
        </mxCell>
        <mxCell id="YDf5MCtkhkVf0nu9kX-I-155" value="GDP拉动&#xa;效果与趋&#xa;势调研" style="shape=step;perimeter=stepPerimeter;fixedSize=1;points=[];" parent="YDf5MCtkhkVf0nu9kX-I-153" vertex="1">
          <mxGeometry x="98" y="33" width="100" height="57" as="geometry" />
        </mxCell>
        <mxCell id="YDf5MCtkhkVf0nu9kX-I-156" value="投资结构&#xa;优化效果" style="shape=step;perimeter=stepPerimeter;fixedSize=1;points=[];" parent="YDf5MCtkhkVf0nu9kX-I-153" vertex="1">
          <mxGeometry x="186" y="33" width="100" height="57" as="geometry" />
        </mxCell>
        <mxCell id="YDf5MCtkhkVf0nu9kX-I-83" value="房山区十四五规划单个项目评估指标体系" style="shape=table;html=1;whiteSpace=wrap;startSize=30;container=1;collapsible=0;childLayout=tableLayout;fixedRows=1;rowLines=0;fontStyle=1;align=center;" parent="1" vertex="1">
          <mxGeometry x="530" y="510" width="140" height="300" as="geometry" />
        </mxCell>
        <mxCell id="YDf5MCtkhkVf0nu9kX-I-84" value="" style="shape=partialRectangle;html=1;whiteSpace=wrap;collapsible=0;dropTarget=0;pointerEvents=0;fillColor=none;top=0;left=0;bottom=1;right=0;points=[[0,0.5],[1,0.5]];portConstraint=eastwest;" parent="YDf5MCtkhkVf0nu9kX-I-83" vertex="1">
          <mxGeometry y="30" width="140" height="30" as="geometry" />
        </mxCell>
        <mxCell id="YDf5MCtkhkVf0nu9kX-I-85" value="分项" style="shape=partialRectangle;html=1;whiteSpace=wrap;connectable=0;fillColor=none;top=0;left=0;bottom=0;right=0;overflow=hidden;" parent="YDf5MCtkhkVf0nu9kX-I-84" vertex="1">
          <mxGeometry width="40" height="30" as="geometry" />
        </mxCell>
        <mxCell id="YDf5MCtkhkVf0nu9kX-I-86" value="一级指标" style="shape=partialRectangle;html=1;whiteSpace=wrap;connectable=0;fillColor=none;top=0;left=0;bottom=0;right=0;align=center;spacingLeft=6;overflow=hidden;" parent="YDf5MCtkhkVf0nu9kX-I-84" vertex="1">
          <mxGeometry x="40" width="100" height="30" as="geometry" />
        </mxCell>
        <mxCell id="YDf5MCtkhkVf0nu9kX-I-87" value="" style="shape=partialRectangle;html=1;whiteSpace=wrap;collapsible=0;dropTarget=0;pointerEvents=0;fillColor=#d5e8d4;top=0;left=0;bottom=0;right=0;points=[[0,0.5],[1,0.5]];portConstraint=eastwest;strokeColor=#82b366;" parent="YDf5MCtkhkVf0nu9kX-I-83" vertex="1">
          <mxGeometry y="60" width="140" height="30" as="geometry" />
        </mxCell>
        <mxCell id="YDf5MCtkhkVf0nu9kX-I-88" value="1" style="shape=partialRectangle;html=1;whiteSpace=wrap;connectable=0;fillColor=#d5e8d4;top=0;left=0;bottom=0;right=0;overflow=hidden;strokeColor=#82b366;" parent="YDf5MCtkhkVf0nu9kX-I-87" vertex="1">
          <mxGeometry width="40" height="30" as="geometry" />
        </mxCell>
        <mxCell id="YDf5MCtkhkVf0nu9kX-I-89" value="项目范围" style="shape=partialRectangle;html=1;whiteSpace=wrap;connectable=0;fillColor=#d5e8d4;top=0;left=0;bottom=0;right=0;align=left;spacingLeft=6;overflow=hidden;strokeColor=#82b366;" parent="YDf5MCtkhkVf0nu9kX-I-87" vertex="1">
          <mxGeometry x="40" width="100" height="30" as="geometry" />
        </mxCell>
        <mxCell id="YDf5MCtkhkVf0nu9kX-I-90" value="" style="shape=partialRectangle;html=1;whiteSpace=wrap;collapsible=0;dropTarget=0;pointerEvents=0;fillColor=#d5e8d4;top=0;left=0;bottom=0;right=0;points=[[0,0.5],[1,0.5]];portConstraint=eastwest;strokeColor=#82b366;" parent="YDf5MCtkhkVf0nu9kX-I-83" vertex="1">
          <mxGeometry y="90" width="140" height="30" as="geometry" />
        </mxCell>
        <mxCell id="YDf5MCtkhkVf0nu9kX-I-91" value="2" style="shape=partialRectangle;html=1;whiteSpace=wrap;connectable=0;fillColor=#d5e8d4;top=0;left=0;bottom=0;right=0;overflow=hidden;strokeColor=#82b366;" parent="YDf5MCtkhkVf0nu9kX-I-90" vertex="1">
          <mxGeometry width="40" height="30" as="geometry" />
        </mxCell>
        <mxCell id="YDf5MCtkhkVf0nu9kX-I-92" value="项目时间" style="shape=partialRectangle;html=1;whiteSpace=wrap;connectable=0;fillColor=#d5e8d4;top=0;left=0;bottom=0;right=0;align=left;spacingLeft=6;overflow=hidden;strokeColor=#82b366;" parent="YDf5MCtkhkVf0nu9kX-I-90" vertex="1">
          <mxGeometry x="40" width="100" height="30" as="geometry" />
        </mxCell>
        <mxCell id="YDf5MCtkhkVf0nu9kX-I-23" value="房山区十四五重大项目组合管理评价指标体系" style="shape=table;html=1;whiteSpace=wrap;startSize=30;container=1;collapsible=0;childLayout=tableLayout;fixedRows=1;rowLines=0;fontStyle=1;align=center;" parent="1" vertex="1">
          <mxGeometry x="350" y="510" width="140" height="300" as="geometry" />
        </mxCell>
        <mxCell id="YDf5MCtkhkVf0nu9kX-I-24" value="" style="shape=partialRectangle;html=1;whiteSpace=wrap;collapsible=0;dropTarget=0;pointerEvents=0;fillColor=none;top=0;left=0;bottom=1;right=0;points=[[0,0.5],[1,0.5]];portConstraint=eastwest;" parent="YDf5MCtkhkVf0nu9kX-I-23" vertex="1">
          <mxGeometry y="30" width="140" height="30" as="geometry" />
        </mxCell>
        <mxCell id="YDf5MCtkhkVf0nu9kX-I-25" value="分项" style="shape=partialRectangle;html=1;whiteSpace=wrap;connectable=0;fillColor=none;top=0;left=0;bottom=0;right=0;overflow=hidden;" parent="YDf5MCtkhkVf0nu9kX-I-24" vertex="1">
          <mxGeometry width="40" height="30" as="geometry" />
        </mxCell>
        <mxCell id="YDf5MCtkhkVf0nu9kX-I-26" value="一级指标" style="shape=partialRectangle;html=1;whiteSpace=wrap;connectable=0;fillColor=none;top=0;left=0;bottom=0;right=0;align=center;spacingLeft=6;overflow=hidden;" parent="YDf5MCtkhkVf0nu9kX-I-24" vertex="1">
          <mxGeometry x="40" width="100" height="30" as="geometry" />
        </mxCell>
        <mxCell id="YDf5MCtkhkVf0nu9kX-I-27" value="" style="shape=partialRectangle;html=1;whiteSpace=wrap;collapsible=0;dropTarget=0;pointerEvents=0;fillColor=#dae8fc;top=0;left=0;bottom=0;right=0;points=[[0,0.5],[1,0.5]];portConstraint=eastwest;strokeColor=#6c8ebf;" parent="YDf5MCtkhkVf0nu9kX-I-23" vertex="1">
          <mxGeometry y="60" width="140" height="30" as="geometry" />
        </mxCell>
        <mxCell id="YDf5MCtkhkVf0nu9kX-I-28" value="1" style="shape=partialRectangle;html=1;whiteSpace=wrap;connectable=0;fillColor=#dae8fc;top=0;left=0;bottom=0;right=0;overflow=hidden;strokeColor=#6c8ebf;" parent="YDf5MCtkhkVf0nu9kX-I-27" vertex="1">
          <mxGeometry width="40" height="30" as="geometry" />
        </mxCell>
        <mxCell id="YDf5MCtkhkVf0nu9kX-I-29" value="经济发展" style="shape=partialRectangle;html=1;whiteSpace=wrap;connectable=0;fillColor=#dae8fc;top=0;left=0;bottom=0;right=0;align=left;spacingLeft=6;overflow=hidden;strokeColor=#6c8ebf;" parent="YDf5MCtkhkVf0nu9kX-I-27" vertex="1">
          <mxGeometry x="40" width="100" height="30" as="geometry" />
        </mxCell>
        <mxCell id="YDf5MCtkhkVf0nu9kX-I-30" value="" style="shape=partialRectangle;html=1;whiteSpace=wrap;collapsible=0;dropTarget=0;pointerEvents=0;fillColor=#dae8fc;top=0;left=0;bottom=0;right=0;points=[[0,0.5],[1,0.5]];portConstraint=eastwest;strokeColor=#6c8ebf;" parent="YDf5MCtkhkVf0nu9kX-I-23" vertex="1">
          <mxGeometry y="90" width="140" height="30" as="geometry" />
        </mxCell>
        <mxCell id="YDf5MCtkhkVf0nu9kX-I-31" value="2" style="shape=partialRectangle;html=1;whiteSpace=wrap;connectable=0;fillColor=#dae8fc;top=0;left=0;bottom=0;right=0;overflow=hidden;strokeColor=#6c8ebf;" parent="YDf5MCtkhkVf0nu9kX-I-30" vertex="1">
          <mxGeometry width="40" height="30" as="geometry" />
        </mxCell>
        <mxCell id="YDf5MCtkhkVf0nu9kX-I-32" value="环境和谐" style="shape=partialRectangle;html=1;whiteSpace=wrap;connectable=0;fillColor=#dae8fc;top=0;left=0;bottom=0;right=0;align=left;spacingLeft=6;overflow=hidden;strokeColor=#6c8ebf;" parent="YDf5MCtkhkVf0nu9kX-I-30" vertex="1">
          <mxGeometry x="40" width="100" height="30" as="geometry" />
        </mxCell>
        <mxCell id="YDf5MCtkhkVf0nu9kX-I-175" value="&lt;span style=&quot;font-weight: 700&quot;&gt;项目组合管理评价指标体系&lt;/span&gt;" style="rounded=0;whiteSpace=wrap;html=1;" parent="1" vertex="1">
          <mxGeometry x="360" y="460" width="120" height="40" as="geometry" />
        </mxCell>
        <mxCell id="YDf5MCtkhkVf0nu9kX-I-176" value="&lt;span style=&quot;font-weight: 700&quot;&gt;单个项目管理评价指标体系&lt;/span&gt;" style="rounded=0;whiteSpace=wrap;html=1;" parent="1" vertex="1">
          <mxGeometry x="540" y="460" width="120" height="40" as="geometry" />
        </mxCell>
        <mxCell id="YDf5MCtkhkVf0nu9kX-I-178" value="" style="edgeStyle=elbowEdgeStyle;elbow=horizontal;endArrow=classic;html=1;exitX=1;exitY=0.5;exitDx=0;exitDy=0;" parent="1" source="YDf5MCtkhkVf0nu9kX-I-170" target="YDf5MCtkhkVf0nu9kX-I-175" edge="1">
          <mxGeometry width="50" height="50" relative="1" as="geometry">
            <mxPoint x="480" y="520" as="sourcePoint" />
            <mxPoint x="530" y="470" as="targetPoint" />
          </mxGeometry>
        </mxCell>
        <mxCell id="YDf5MCtkhkVf0nu9kX-I-179" value="" style="edgeStyle=elbowEdgeStyle;elbow=horizontal;endArrow=classic;html=1;exitX=1;exitY=0.5;exitDx=0;exitDy=0;entryX=0;entryY=0.5;entryDx=0;entryDy=0;" parent="1" source="YDf5MCtkhkVf0nu9kX-I-170" target="YDf5MCtkhkVf0nu9kX-I-176" edge="1">
          <mxGeometry width="50" height="50" relative="1" as="geometry">
            <mxPoint x="295" y="456.75" as="sourcePoint" />
            <mxPoint x="370" y="480" as="targetPoint" />
            <Array as="points">
              <mxPoint x="500" y="440" />
            </Array>
          </mxGeometry>
        </mxCell>
        <mxCell id="YDf5MCtkhkVf0nu9kX-I-190" value="" style="edgeStyle=elbowEdgeStyle;elbow=horizontal;endArrow=classic;html=1;entryX=0;entryY=0.5;entryDx=0;entryDy=0;exitX=0.5;exitY=1;exitDx=0;exitDy=0;" parent="1" source="YDf5MCtkhkVf0nu9kX-I-187" target="YDf5MCtkhkVf0nu9kX-I-102" edge="1">
          <mxGeometry width="50" height="50" relative="1" as="geometry">
            <mxPoint x="430" y="820" as="sourcePoint" />
            <mxPoint x="450" y="890" as="targetPoint" />
            <Array as="points">
              <mxPoint x="215" y="940" />
            </Array>
          </mxGeometry>
        </mxCell>
      </root>
    </mxGraphModel>
  </diagram>
</mxfile>
